<svg xmlns="http://www.w3.org/2000/svg" viewBox="0 0 1280 760">
<rect x="0" y="0" width="1280" height="760" fill="#F1F5F9"/>
<text x="640" y="44" text-anchor="middle" font-family="Noto Sans SC, sans-serif" font-size="26" font-weight="700" fill="#0F172A">实时聊天 Web 应用 — 页面原型（线框图）</text>
<text x="640" y="70" text-anchor="middle" font-family="Noto Sans SC, sans-serif" font-size="13" fill="#64748B">登录/注册 · 好友列表 · 单聊 · 个人资料 （低保真线框，仅示意布局）</text>
<rect x="35" y="96" width="280" height="600" rx="26" fill="#FFFFFF" stroke="#CBD5E1" stroke-width="2"/>
<text x="175" y="82" text-anchor="middle" font-family="Noto Sans SC, sans-serif" font-size="15" font-weight="700" fill="#0F172A">① 登录 / 注册</text>
<text x="51" y="124" font-family="Noto Sans SC, sans-serif" font-size="12" fill="#1E293B">9:41</text>
<circle cx="285" cy="118" r="3" fill="#94A3B8"/><circle cx="297" cy="118" r="3" fill="#94A3B8"/>
<circle cx="175" cy="200" r="28" fill="#3B82F6"/>
<path d="M 163 192 q 12 -14 24 0 M 167 210 h 16" stroke="#FFFFFF" stroke-width="2.5" fill="none" stroke-linecap="round"/>
<text x="175" y="260" text-anchor="middle" font-family="Noto Sans SC, sans-serif" font-size="20" font-weight="700" fill="#1E293B">聊天</text>
<text x="69" y="296" font-family="Noto Sans SC, sans-serif" font-size="11" fill="#94A3B8">用户名</text>
<rect x="69" y="300" width="212" height="38" rx="8" fill="#F8FAFC" stroke="#CBD5E1" stroke-width="1.5"/>
<text x="79" y="324" font-family="Noto Sans SC, sans-serif" font-size="13" fill="#E2E8F0">请输入用户名</text>
<text x="69" y="362" font-family="Noto Sans SC, sans-serif" font-size="11" fill="#94A3B8">密码</text>
<rect x="69" y="366" width="212" height="38" rx="8" fill="#F8FAFC" stroke="#CBD5E1" stroke-width="1.5"/>
<text x="79" y="390" font-family="Noto Sans SC, sans-serif" font-size="13" fill="#E2E8F0">••••••••</text>
<rect x="69" y="422" width="16" height="16" rx="4" fill="#FFFFFF" stroke="#3B82F6" stroke-width="2"/>
<text x="93" y="434" font-family="Noto Sans SC, sans-serif" font-size="12" fill="#1E293B">记住我</text>
<rect x="69" y="456" width="212" height="44" rx="9" fill="#3B82F6" stroke="#3B82F6" stroke-width="1.5"/>
<text x="175" y="483" text-anchor="middle" font-family="Noto Sans SC, sans-serif" font-size="14" font-weight="600" fill="#FFFFFF">登 录</text>
<text x="175" y="530" text-anchor="middle" font-family="Noto Sans SC, sans-serif" font-size="13" fill="#3B82F6">注册新账号</text>
<rect x="345" y="96" width="280" height="600" rx="26" fill="#FFFFFF" stroke="#CBD5E1" stroke-width="2"/>
<text x="485" y="82" text-anchor="middle" font-family="Noto Sans SC, sans-serif" font-size="15" font-weight="700" fill="#0F172A">② 好友列表</text>
<text x="361" y="124" font-family="Noto Sans SC, sans-serif" font-size="12" fill="#1E293B">9:41</text>
<circle cx="595" cy="118" r="3" fill="#94A3B8"/><circle cx="607" cy="118" r="3" fill="#94A3B8"/>
<text x="365" y="140" font-family="Noto Sans SC, sans-serif" font-size="20" fill="#1E293B">‹</text>
<text x="485" y="140" text-anchor="middle" font-family="Noto Sans SC, sans-serif" font-size="15" font-weight="700" fill="#1E293B">好友</text>
<text x="605" y="140" text-anchor="end" font-family="Noto Sans SC, sans-serif" font-size="18" fill="#1E293B">＋</text>
<line x1="359" y1="154" x2="611" y2="154" stroke="#E2E8F0" stroke-width="1"/>
<text x="375" y="166" font-family="Noto Sans SC, sans-serif" font-size="11" fill="#94A3B8"></text>
<rect x="375" y="170" width="220" height="38" rx="8" fill="#F8FAFC" stroke="#CBD5E1" stroke-width="1.5"/>
<text x="385" y="194" font-family="Noto Sans SC, sans-serif" font-size="13" fill="#E2E8F0">🔍 搜索好友</text>
<circle cx="393" cy="248" r="18" fill="#E2E8F0" stroke="#CBD5E1" stroke-width="1.5"/>
<circle cx="393" cy="244" r="5.76" fill="#94A3B8"/>
<path d="M 383.1 257.9 Q 393 247.1 402.9 257.9 Z" fill="#94A3B8"/>
<circle cx="405.6" cy="260.6" r="5" fill="#22C55E" stroke="#FFFFFF" stroke-width="2"/>
<text x="423" y="242" font-family="Noto Sans SC, sans-serif" font-size="13" font-weight="600" fill="#1E293B">张伟</text>
<text x="423" y="260" font-family="Noto Sans SC, sans-serif" font-size="11" fill="#94A3B8">在吗？周末一起吃饭？</text>
<line x1="375" y1="272" x2="595" y2="272" stroke="#E2E8F0" stroke-width="1"/>
<circle cx="393" cy="304" r="18" fill="#E2E8F0" stroke="#CBD5E1" stroke-width="1.5"/>
<circle cx="393" cy="300" r="5.76" fill="#94A3B8"/>
<path d="M 383.1 313.9 Q 393 303.1 402.9 313.9 Z" fill="#94A3B8"/>
<text x="423" y="298" font-family="Noto Sans SC, sans-serif" font-size="13" font-weight="600" fill="#1E293B">李娜</text>
<text x="423" y="316" font-family="Noto Sans SC, sans-serif" font-size="11" fill="#94A3B8">[图片]</text>
<line x1="375" y1="328" x2="595" y2="328" stroke="#E2E8F0" stroke-width="1"/>
<circle cx="393" cy="360" r="18" fill="#E2E8F0" stroke="#CBD5E1" stroke-width="1.5"/>
<circle cx="393" cy="356" r="5.76" fill="#94A3B8"/>
<path d="M 383.1 369.9 Q 393 359.1 402.9 369.9 Z" fill="#94A3B8"/>
<circle cx="405.6" cy="372.6" r="5" fill="#22C55E" stroke="#FFFFFF" stroke-width="2"/>
<text x="423" y="354" font-family="Noto Sans SC, sans-serif" font-size="13" font-weight="600" fill="#1E293B">王芳</text>
<text x="423" y="372" font-family="Noto Sans SC, sans-serif" font-size="11" fill="#94A3B8">好的，晚点聊</text>
<line x1="375" y1="384" x2="595" y2="384" stroke="#E2E8F0" stroke-width="1"/>
<circle cx="393" cy="416" r="18" fill="#E2E8F0" stroke="#CBD5E1" stroke-width="1.5"/>
<circle cx="393" cy="412" r="5.76" fill="#94A3B8"/>
<path d="M 383.1 425.9 Q 393 415.1 402.9 425.9 Z" fill="#94A3B8"/>
<text x="423" y="410" font-family="Noto Sans SC, sans-serif" font-size="13" font-weight="600" fill="#1E293B">陈强</text>
<text x="423" y="428" font-family="Noto Sans SC, sans-serif" font-size="11" fill="#94A3B8">收到</text>
<line x1="375" y1="440" x2="595" y2="440" stroke="#E2E8F0" stroke-width="1"/>
<line x1="359" y1="636" x2="611" y2="636" stroke="#E2E8F0" stroke-width="1"/>
<text x="422" y="666" text-anchor="middle" font-family="Noto Sans SC, sans-serif" font-size="12" fill="#3B82F6">消息</text>
<text x="548" y="666" text-anchor="middle" font-family="Noto Sans SC, sans-serif" font-size="12" fill="#94A3B8">好友</text>
<rect x="655" y="96" width="280" height="600" rx="26" fill="#FFFFFF" stroke="#CBD5E1" stroke-width="2"/>
<text x="795" y="82" text-anchor="middle" font-family="Noto Sans SC, sans-serif" font-size="15" font-weight="700" fill="#0F172A">③ 单聊</text>
<text x="671" y="124" font-family="Noto Sans SC, sans-serif" font-size="12" fill="#1E293B">9:41</text>
<circle cx="905" cy="118" r="3" fill="#94A3B8"/><circle cx="917" cy="118" r="3" fill="#94A3B8"/>
<text x="675" y="140" font-family="Noto Sans SC, sans-serif" font-size="20" fill="#1E293B">‹</text>
<text x="795" y="140" text-anchor="middle" font-family="Noto Sans SC, sans-serif" font-size="15" font-weight="700" fill="#1E293B">张伟</text>
<text x="915" y="140" text-anchor="end" font-family="Noto Sans SC, sans-serif" font-size="18" fill="#1E293B">⋯</text>
<line x1="669" y1="154" x2="921" y2="154" stroke="#E2E8F0" stroke-width="1"/>
<text x="795" y="168" text-anchor="middle" font-family="Noto Sans SC, sans-serif" font-size="11" fill="#22C55E">在线</text>
<rect x="685" y="206" width="59" height="34" rx="14" fill="#E2E8F0"/>
<text x="714" y="228" text-anchor="middle" font-family="Noto Sans SC, sans-serif" font-size="12" fill="#1E293B">在吗？</text>
<rect x="807" y="256" width="98" height="34" rx="14" fill="#3B82F6"/>
<text x="856" y="278" text-anchor="middle" font-family="Noto Sans SC, sans-serif" font-size="12" fill="#FFFFFF">在的，怎么了</text>
<rect x="685" y="306" width="111" height="34" rx="14" fill="#E2E8F0"/>
<text x="740" y="328" text-anchor="middle" font-family="Noto Sans SC, sans-serif" font-size="12" fill="#1E293B">周末一起吃饭？</text>
<rect x="846" y="356" width="59" height="34" rx="14" fill="#3B82F6"/>
<text x="875" y="378" text-anchor="middle" font-family="Noto Sans SC, sans-serif" font-size="12" fill="#FFFFFF">好啊！</text>
<text x="903" y="386" text-anchor="end" font-family="Noto Sans SC, sans-serif" font-size="10" fill="#94A3B8">已读</text>
<rect x="681" y="628" width="134" height="38" rx="19" fill="#F8FAFC" stroke="#CBD5E1" stroke-width="1.5"/>
<text x="693" y="652" font-family="Noto Sans SC, sans-serif" font-size="12" fill="#E2E8F0">输入消息…</text>
<rect x="823" y="628" width="34" height="38" rx="8" fill="#F8FAFC" stroke="#CBD5E1" stroke-width="1.5"/>
<text x="840" y="652" text-anchor="middle" font-family="Noto Sans SC, sans-serif" font-size="16" fill="#94A3B8">🖼</text>
<rect x="863" y="628" width="46" height="38" rx="9" fill="#3B82F6" stroke="#3B82F6" stroke-width="1.5"/>
<text x="886" y="652" text-anchor="middle" font-family="Noto Sans SC, sans-serif" font-size="14" font-weight="600" fill="#FFFFFF">发送</text>
<rect x="965" y="96" width="280" height="600" rx="26" fill="#FFFFFF" stroke="#CBD5E1" stroke-width="2"/>
<text x="1105" y="82" text-anchor="middle" font-family="Noto Sans SC, sans-serif" font-size="15" font-weight="700" fill="#0F172A">④ 个人资料</text>
<text x="981" y="124" font-family="Noto Sans SC, sans-serif" font-size="12" fill="#1E293B">9:41</text>
<circle cx="1215" cy="118" r="3" fill="#94A3B8"/><circle cx="1227" cy="118" r="3" fill="#94A3B8"/>
<text x="985" y="140" font-family="Noto Sans SC, sans-serif" font-size="20" fill="#1E293B">‹</text>
<text x="1105" y="140" text-anchor="middle" font-family="Noto Sans SC, sans-serif" font-size="15" font-weight="700" fill="#1E293B">个人资料</text>
<text x="1225" y="140" text-anchor="end" font-family="Noto Sans SC, sans-serif" font-size="18" fill="#1E293B"></text>
<line x1="979" y1="154" x2="1231" y2="154" stroke="#E2E8F0" stroke-width="1"/>
<circle cx="1105" cy="220" r="40" fill="#E2E8F0" stroke="#CBD5E1" stroke-width="1.5"/>
<circle cx="1105" cy="216" r="12.8" fill="#94A3B8"/>
<path d="M 1083.0 242.0 Q 1105 218.0 1127.0 242.0 Z" fill="#94A3B8"/>
<text x="1105" y="282" text-anchor="middle" font-family="Noto Sans SC, sans-serif" font-size="16" font-weight="700" fill="#1E293B">左庆江</text>
<text x="1105" y="304" text-anchor="middle" font-family="Noto Sans SC, sans-serif" font-size="12" fill="#22C55E">在线</text>
<text x="1003" y="360" font-family="Noto Sans SC, sans-serif" font-size="13" fill="#94A3B8">用户名</text>
<text x="1207" y="360" text-anchor="end" font-family="Noto Sans SC, sans-serif" font-size="13" fill="#1E293B">zqj</text>
<line x1="995" y1="374" x2="1215" y2="374" stroke="#E2E8F0" stroke-width="1"/>
<text x="1003" y="408" font-family="Noto Sans SC, sans-serif" font-size="13" fill="#94A3B8">状态</text>
<text x="1207" y="408" text-anchor="end" font-family="Noto Sans SC, sans-serif" font-size="13" fill="#1E293B">正常</text>
<line x1="995" y1="422" x2="1215" y2="422" stroke="#E2E8F0" stroke-width="1"/>
<rect x="1003" y="446" width="204" height="42" rx="9" fill="#FFFFFF" stroke="#3B82F6" stroke-width="1.5"/>
<text x="1105" y="472" text-anchor="middle" font-family="Noto Sans SC, sans-serif" font-size="14" font-weight="600" fill="#3B82F6">编辑资料</text>
<rect x="1003" y="498" width="204" height="42" rx="9" fill="#FFFFFF" stroke="#3B82F6" stroke-width="1.5"/>
<text x="1105" y="524" text-anchor="middle" font-family="Noto Sans SC, sans-serif" font-size="14" font-weight="600" fill="#3B82F6">更换头像</text>
</svg>